<svg version="1.1" id="Layer_1" xmlns="http://www.w3.org/2000/svg" xmlns:xlink="http://www.w3.org/1999/xlink" x="0px" y="0px"
	 width="100%" viewBox="0 0 1024 1024" enable-background="new 0 0 1024 1024" xml:space="preserve">
<path fill="#000000" opacity="1.000000" stroke="none" 
	d="
M353.188293,573.980591 
	C356.274445,580.453491 357.046967,586.693909 354.687988,593.217346 
	C352.102173,600.368103 348.622894,601.861084 340.418945,598.463196 
	C349.217133,588.797363 345.119873,579.245056 340.576080,569.384033 
	C337.222443,562.105835 338.613434,554.554749 342.293854,547.721619 
	C346.893341,539.182129 346.799957,531.100830 342.300751,522.519409 
	C337.598480,513.550598 337.763245,504.291229 342.577240,495.225403 
	C344.988800,490.683960 347.287903,486.082825 349.449615,481.875061 
	C349.028839,479.999054 347.888702,479.542938 346.830231,479.123108 
	C333.702423,473.916046 325.388092,463.684662 318.544189,451.963562 
	C316.363281,448.228394 314.415466,444.352661 312.467590,440.487518 
	C311.219788,438.011566 311.436096,435.593414 313.552826,433.638580 
	C315.803436,431.560120 318.365997,431.618286 320.976288,432.920349 
	C323.117920,433.988708 324.576813,435.853760 326.177429,437.541412 
	C329.959717,441.529419 333.601654,445.659149 337.520325,449.507538 
	C347.136932,458.951660 359.156433,460.459229 373.200745,459.519379 
	C370.669373,457.871826 369.054688,456.739288 367.362213,455.738281 
	C364.759613,454.199036 362.284943,452.511658 360.492828,450.029510 
	C358.429565,447.171753 357.301117,444.057983 359.172241,440.709534 
	C360.915558,437.589722 363.944153,436.493500 367.288177,436.934418 
	C379.828766,438.587952 392.404388,440.105988 404.473541,444.206726 
	C422.119141,450.202148 432.862000,463.224213 440.734772,479.360291 
	C452.712769,503.910553 463.591248,528.987183 476.170807,553.247986 
	C477.321045,555.466309 478.405243,557.718750 479.550873,559.939514 
	C485.563263,571.594788 486.728882,571.945251 498.446991,565.439941 
	C514.945129,556.280945 527.422913,542.637512 539.401245,528.481323 
	C551.341125,514.370605 562.195251,499.350494 575.216125,486.142090 
	C585.549255,475.660126 597.256897,467.375397 611.243469,462.506287 
	C611.850830,462.294800 612.389038,461.884674 612.963562,461.564850 
	C612.905518,459.201965 610.943787,458.515015 609.605896,457.457581 
	C601.772949,451.266632 597.499695,443.378998 597.952393,433.255798 
	C598.235718,426.920227 595.968079,422.054688 590.773865,418.238800 
	C585.766663,414.560242 582.840637,409.362701 581.586182,403.230743 
	C579.812439,394.560638 581.486572,390.898041 589.741577,386.065308 
	C592.133911,388.315002 591.487549,391.317444 591.250793,393.950043 
	C590.546936,401.775269 593.040527,407.738403 599.589294,412.465546 
	C605.258850,416.558014 608.566467,422.775391 608.111572,429.747559 
	C607.401855,440.623260 612.312134,447.823608 620.943970,453.354187 
	C625.137268,456.040924 628.664978,460.756042 634.806458,457.282928 
	C634.185364,452.755371 631.007874,449.959167 627.596985,447.680939 
	C619.795959,442.470428 616.209839,435.319794 616.715027,426.053802 
	C617.052673,419.861542 614.658630,414.955200 609.702148,411.414581 
	C601.139282,405.297729 597.716370,397.042236 598.812195,386.702637 
	C599.057922,384.383820 599.390747,381.779022 598.009521,379.863708 
	C594.394958,374.851227 597.192200,370.876373 599.844177,365.791443 
	C605.766907,369.815674 609.452759,375.430969 608.921387,381.634338 
	C607.954346,392.925171 611.384216,401.124786 620.495728,407.832703 
	C624.848938,411.037537 626.446655,416.609589 626.316040,422.202972 
	C626.127869,430.259888 628.609497,436.699768 635.772400,441.288330 
	C640.152771,444.094391 643.107544,448.521149 645.120605,453.402130 
	C647.719788,459.704010 649.176086,460.584534 657.260742,460.249786 
	C657.087280,451.920074 653.977478,445.215576 647.035706,440.444000 
	C641.986267,436.973236 637.767761,432.872894 635.734497,426.874756 
	C634.916626,424.462128 634.665405,422.022858 634.591736,419.511261 
	C634.407227,413.217255 632.451721,407.783752 627.063110,403.957977 
	C619.169739,398.353882 615.623962,390.754852 616.813660,381.056427 
	C617.623230,374.457397 614.838928,369.446259 609.921326,365.332855 
	C604.972534,361.193481 602.363892,355.857910 601.680176,348.747284 
	C607.037415,349.700439 612.347778,349.152069 614.934265,355.092926 
	C615.506653,356.407623 616.639893,357.589874 617.765869,358.533630 
	C625.005859,364.601898 627.859985,372.395721 626.992310,381.651672 
	C626.449097,387.446228 628.323364,392.038940 633.054077,395.570679 
	C640.586792,401.194214 644.782654,408.439240 644.413818,418.216217 
	C644.215088,423.483459 646.618103,427.860291 651.289185,430.774017 
	C659.975891,436.192657 665.175537,443.984406 667.026978,454.052704 
	C668.419617,461.625977 672.279907,466.961609 679.056152,471.358673 
	C697.994446,483.647675 708.166382,501.977722 712.270508,523.883423 
	C713.683167,531.423645 714.313660,539.033264 714.322144,546.724365 
	C714.326477,550.681641 712.434082,551.393311 709.054199,551.404907 
	C705.623413,551.416626 703.702332,550.559814 703.812500,546.676025 
	C704.107361,536.280884 702.717957,526.084656 699.717529,516.115417 
	C690.956116,487.003998 664.221985,467.327026 633.885376,468.426971 
	C614.491821,469.130127 598.477661,477.981995 584.679260,491.208984 
	C572.723022,502.670105 563.022217,516.056030 552.528320,528.769714 
	C539.896729,544.073364 527.081177,559.221985 510.383698,570.418884 
	C504.120636,574.618774 497.483856,578.069763 490.116669,579.899902 
	C481.729126,581.983459 478.722382,580.486145 474.755890,573.202576 
	C459.042084,544.348145 445.818878,514.283447 432.188477,484.446899 
	C422.601105,463.460449 406.303497,453.131409 384.581909,449.423645 
	C382.122223,449.003784 379.648224,448.663605 377.174377,448.335358 
	C376.747223,448.278656 376.287445,448.467743 375.559052,448.591522 
	C383.009583,455.225525 394.777740,456.748688 397.883087,469.070709 
	C385.474365,469.070709 373.631531,469.070709 361.788696,469.070709 
	C361.757629,469.404297 361.726562,469.737915 361.695526,470.071503 
	C370.110596,473.051208 378.373535,476.601562 386.971924,478.893585 
	C405.749847,483.899170 416.797516,495.648071 421.557190,514.415955 
	C428.388428,541.351929 433.417908,568.722778 441.267273,595.407471 
	C441.750397,597.050049 442.782410,598.967773 439.990509,599.875732 
	C436.143951,601.126709 431.579803,599.812378 430.694641,596.765320 
	C429.209045,591.651306 427.909088,586.478455 426.687805,581.293457 
	C421.650269,559.906189 416.732788,538.490479 411.632416,517.118347 
	C410.197998,511.107544 408.060242,505.306000 404.093964,500.397949 
	C402.536407,498.470520 400.974152,496.487274 398.371307,495.916168 
	C392.576691,501.736938 391.585358,509.874847 395.818085,518.502136 
	C398.337219,523.636597 400.458160,528.768982 400.416779,534.659119 
	C400.383209,539.439392 399.593201,543.962158 397.210815,548.102661 
	C392.399628,556.464355 392.023773,564.619263 397.224060,573.106140 
	C400.966248,579.213379 401.349457,586.070129 399.266785,592.906616 
	C397.081970,600.078308 393.584198,601.626282 385.700470,599.056458 
	C385.823425,598.476624 385.773193,597.737915 386.107819,597.281006 
	C391.837677,589.457581 391.409241,581.739319 386.572906,573.532349 
	C381.627716,565.140564 381.794434,556.153198 386.547913,547.788330 
	C391.499054,539.075745 391.318878,530.973938 386.597870,522.259277 
	C381.869171,513.530334 381.860962,504.407104 386.568787,495.466827 
	C387.110901,494.437347 387.579742,493.367188 388.036713,492.296356 
	C388.158081,492.011993 388.109253,491.654968 388.134277,491.330933 
	C381.922302,487.289917 381.113708,487.559998 377.167328,493.379150 
	C370.920959,502.589752 369.491211,511.777374 375.457123,521.862000 
	C380.611938,530.575500 380.338593,539.867310 375.332581,548.552673 
	C370.407318,557.097900 370.569489,565.099915 375.429779,573.546387 
	C379.069580,579.871826 379.867523,586.728455 377.139130,593.756531 
	C374.567932,600.379700 371.310974,601.679504 363.426025,598.457520 
	C371.524048,589.038513 368.016663,579.890381 363.406952,570.256348 
	C360.045227,563.230530 360.721802,555.495483 364.568085,548.554871 
	C369.511169,539.635071 369.736389,531.044250 364.760254,521.984741 
	C359.600220,512.590454 360.760925,503.062500 365.593658,493.779175 
	C366.803894,491.454376 368.653107,489.409119 369.033844,486.715027 
	C362.153198,482.842865 360.140991,483.232880 356.663574,489.732880 
	C353.557739,495.538361 349.207367,500.820038 349.117340,507.968842 
	C349.060852,512.455505 350.136414,516.488708 352.227783,520.390869 
	C357.212769,529.691772 357.894684,539.333435 352.731873,548.606873 
	C347.925354,557.240356 348.012909,565.343384 353.188293,573.980591 
z"/>
<path fill="#000000" opacity="1.000000" stroke="none" 
	d="
M515.599731,474.043335 
	C516.880798,470.705444 518.048950,467.767487 519.253967,464.844757 
	C521.749329,458.792480 522.439880,452.723572 520.184998,446.365387 
	C517.937073,440.027069 518.190552,433.611420 520.488159,427.269348 
	C521.110168,425.552338 521.713013,423.787140 521.984741,421.992615 
	C522.677429,417.418823 524.652771,412.756531 519.729370,408.845551 
	C518.177124,407.612518 518.005615,404.641357 516.905090,401.661041 
	C531.838257,398.185242 544.320374,391.037750 551.605225,377.234924 
	C559.010437,363.204132 557.248779,349.338440 549.062500,335.928680 
	C559.905151,334.142517 562.710022,341.562622 565.126160,349.811676 
	C569.471436,345.289185 573.632507,342.006073 579.446594,342.257111 
	C588.631531,342.653656 595.494080,351.465393 593.709595,361.319763 
	C591.347473,374.363861 586.018616,385.512817 572.138794,389.990356 
	C569.336670,390.894348 569.905334,392.833679 570.127258,394.807648 
	C570.979248,402.386536 572.972656,409.901917 571.394836,417.616089 
	C571.028687,419.406067 570.900818,421.284485 570.266418,422.973114 
	C567.070923,431.478729 566.373840,439.900665 568.858582,448.878876 
	C570.851074,456.078308 568.645630,463.104156 564.541199,469.323883 
	C560.951721,474.763275 558.686340,480.200531 560.147278,487.109222 
	C561.244934,492.299683 555.769775,494.187866 552.787659,498.861572 
	C550.568665,487.229889 547.479065,477.139435 554.454651,467.452881 
	C559.262024,460.777161 560.095337,453.358398 557.722107,445.554291 
	C555.523926,438.325653 556.894287,431.330658 559.305359,424.512390 
	C563.540283,412.536682 561.213074,400.967468 557.910645,388.897522 
	C553.754761,390.772217 551.813049,393.048126 552.835693,397.500488 
	C555.240540,407.969757 554.669373,418.279358 550.906555,428.445618 
	C548.897827,433.872864 548.632263,439.536774 550.681763,445.092651 
	C553.528564,452.810028 552.660461,460.213684 548.646240,467.215149 
	C544.846497,473.842499 543.865479,480.506592 544.971863,488.258728 
	C546.458435,498.675018 543.211914,508.513794 537.134399,517.225647 
	C536.412964,518.259888 535.588989,519.470398 533.537537,519.202698 
	C531.136597,513.833740 530.932068,508.153015 532.804016,502.515930 
	C534.799683,496.506165 535.253418,490.607361 533.967712,484.353241 
	C532.798035,478.663757 533.938721,473.077454 536.775696,467.932129 
	C540.575439,461.040710 541.672485,453.780731 539.252869,446.252838 
	C537.054443,439.413116 537.675293,432.793701 539.961365,426.174988 
	C542.044922,420.142670 543.477417,414.010712 542.724487,407.562836 
	C542.515259,405.771149 542.515442,403.350159 540.021851,403.605591 
	C537.842957,403.828796 534.592041,404.665802 535.013123,407.441223 
	C536.324646,416.084808 533.199524,423.896149 531.206177,431.917480 
	C530.029358,436.652893 530.584473,441.208374 531.965576,445.681274 
	C534.412598,453.606476 533.608826,461.163177 529.828125,468.424591 
	C526.795593,474.248993 525.334167,480.182098 527.384827,486.687256 
	C528.843567,491.314758 528.235107,495.889282 526.650269,500.408600 
	C524.468506,506.629700 523.524170,512.880798 525.154602,519.506714 
	C527.150024,527.615601 526.934082,527.676819 519.681152,532.013550 
	C518.566528,532.679993 517.524963,533.595276 515.400024,533.397644 
	C514.301453,523.433960 510.317505,513.547729 514.386353,503.321533 
	C516.826843,497.187683 517.227478,491.124176 515.354126,484.796417 
	C514.346313,481.392334 514.403503,477.883881 515.599731,474.043335 
M583.412537,353.381683 
	C577.293213,348.530792 567.060974,352.513977 565.936890,360.251190 
	C565.148193,365.679230 564.892456,371.208160 562.889404,376.392395 
	C561.752625,379.334351 563.517273,380.405579 565.783081,381.016785 
	C567.948730,381.600952 570.107544,381.014252 572.106079,380.168427 
	C580.651794,376.551605 586.638306,363.118408 583.412537,353.381683 
z"/>
<path fill="#000000" opacity="1.000000" stroke="none" 
	d="
M619.280029,321.040100 
	C622.427490,327.888550 621.536682,333.965912 617.739563,339.874359 
	C615.358948,343.578705 612.669556,344.745972 608.139282,343.368866 
	C585.867493,336.598877 563.342590,330.719574 540.762146,325.069702 
	C524.579529,321.020660 508.289886,317.769531 491.449402,319.973022 
	C488.216614,320.396027 486.171570,318.874512 484.544525,316.169312 
	C479.704071,308.121338 482.101532,296.417572 490.443451,289.443878 
	C498.985657,302.792969 513.573608,301.345764 526.452148,303.464020 
	C554.007690,307.996307 581.684937,311.805481 609.454529,314.863922 
	C613.549316,315.314911 617.387024,316.270538 619.280029,321.040100 
z"/>
<path fill="#000000" opacity="1.000000" stroke="none" 
	d="
M388.702423,708.413696 
	C387.411560,714.357483 388.181915,720.029602 388.046112,725.673218 
	C387.966003,729.002136 386.771423,730.467957 383.294464,730.417664 
	C369.351410,730.215637 371.754303,731.761108 371.691620,719.252380 
	C371.563965,693.772156 371.753540,668.290039 371.576660,642.810425 
	C371.546295,638.432251 372.945892,636.995422 377.260376,637.010071 
	C387.941132,637.046326 387.962250,636.887268 387.975800,647.404297 
	C387.992126,660.061279 387.956726,672.718323 387.977997,685.375305 
	C387.980743,687.003723 387.605804,688.693542 388.887878,691.067017 
	C394.753235,684.903076 401.407898,679.601685 405.858765,672.847900 
	C413.086578,661.880188 423.129272,664.920959 433.817932,664.748169 
	C431.180634,669.546997 427.667114,672.364197 424.740387,675.588440 
	C419.818298,681.010803 414.729523,686.303223 409.420349,691.344421 
	C406.456207,694.158875 406.431549,696.250732 409.158203,699.213013 
	C417.276764,708.033081 425.200684,717.032654 433.160980,725.997375 
	C434.005829,726.948792 435.170624,727.803284 435.060272,730.129333 
	C428.768402,730.129333 422.412048,730.289734 416.073120,730.027832 
	C414.261566,729.953064 413.294586,727.802307 412.096008,726.434204 
	C405.758087,719.200012 399.417053,711.968506 393.264404,704.949829 
	C390.853577,705.356873 390.021790,706.897888 388.702423,708.413696 
z"/>
<path fill="#000000" opacity="1.000000" stroke="none" 
	d="
M269.079956,683.215820 
	C270.834900,687.845520 271.238678,692.262390 271.466034,696.799805 
	C271.702881,701.526001 270.181091,703.292297 265.296783,703.190125 
	C252.474503,702.922180 239.642944,703.064758 226.815369,703.114563 
	C224.881317,703.122070 222.818817,702.628784 221.042053,703.872986 
	C221.795822,712.724915 231.907883,719.194275 242.357437,717.479553 
	C246.857056,716.741150 251.163712,715.341309 254.406250,711.935669 
	C256.721039,709.504517 258.443420,710.123230 260.688110,712.128784 
	C268.910980,719.475281 268.920685,720.879578 259.484009,726.554382 
	C240.475891,737.985229 208.743912,732.162964 203.240906,704.097107 
	C199.826950,686.685547 209.574844,670.172363 226.295578,664.788635 
	C244.048248,659.072632 261.298065,666.376099 269.079956,683.215820 
M234.999634,677.407166 
	C225.989044,679.612000 222.024109,683.224182 221.132614,690.157654 
	C232.454559,690.157654 243.753433,690.157654 255.189301,690.157654 
	C252.787964,681.304016 246.630264,677.380920 234.999634,677.407166 
z"/>
<path fill="#000000" opacity="1.000000" stroke="none" 
	d="
M562.213867,277.721802 
	C576.240845,279.101166 589.809021,280.535431 603.398010,281.734436 
	C606.897705,282.043213 608.817688,283.314819 609.576477,286.884857 
	C610.786926,292.580780 612.135864,298.220673 612.305725,304.088654 
	C612.402649,307.435394 611.064209,308.541229 607.798767,308.074554 
	C585.408630,304.875092 563.015747,301.693176 540.607666,298.622742 
	C529.563599,297.109467 518.528992,295.571930 507.608704,293.308044 
	C502.331116,292.213959 498.342896,289.509216 496.931946,284.058105 
	C496.014313,280.513123 500.068878,270.693756 502.932098,268.675446 
	C503.868774,268.015167 504.748779,267.798706 505.647552,268.513214 
	C513.610474,274.843750 523.410278,273.257874 532.480103,274.579712 
	C542.185913,275.994293 551.997375,276.683380 562.213867,277.721802 
z"/>
<path fill="#000000" opacity="1.000000" stroke="none" 
	d="
M343.943115,730.386536 
	C334.402863,730.223572 333.878265,732.359436 333.946472,720.975464 
	C334.001343,711.814514 334.069977,702.651611 333.946106,693.492126 
	C333.813324,683.672668 329.118866,678.481750 320.529633,678.314697 
	C311.365723,678.136353 305.320801,683.884827 305.074066,693.471802 
	C304.816986,703.460205 305.018646,713.459778 304.822205,723.450623 
	C304.685333,730.411377 304.536133,730.460083 297.760498,730.413757 
	C286.922760,730.339661 288.652405,731.253540 288.606842,721.496399 
	C288.527527,704.506775 288.739807,687.514587 288.518494,670.527588 
	C288.458710,665.938477 289.916504,664.041748 294.488770,664.613281 
	C295.800446,664.777283 297.162994,664.749084 298.480957,664.608948 
	C302.914703,664.137390 305.780792,665.310608 304.648407,671.529785 
	C309.983185,667.361877 314.831940,664.262024 320.906219,663.338257 
	C336.698181,660.936768 349.641479,670.990112 350.172302,687.010864 
	C350.602295,699.989319 350.168640,712.994263 350.352661,725.984131 
	C350.418823,730.651672 347.548096,730.478027 343.943115,730.386536 
z"/>
<path fill="#000000" opacity="1.000000" stroke="none" 
	d="
M520.921326,684.022583 
	C522.739136,678.954407 524.517761,674.284302 526.065979,669.538940 
	C526.981506,666.732910 528.624878,665.645935 531.588074,665.647034 
	C534.627197,665.648193 536.465271,666.445312 537.561523,669.573486 
	C542.351074,683.240112 547.364502,696.828430 552.315369,710.438293 
	C552.932373,712.134460 553.661011,713.790039 554.607605,716.131531 
	C557.906982,710.332275 559.415405,704.545044 561.554138,699.047424 
	C565.114075,689.896790 568.377136,680.630188 571.738831,671.402893 
	C574.013428,665.159607 575.703186,664.413940 582.648560,666.697388 
	C583.356018,668.078857 582.615173,669.313110 582.164490,670.521729 
	C575.300903,688.927551 568.356628,707.303589 561.564819,725.735718 
	C560.389221,728.925903 558.872498,730.543274 555.131287,730.530273 
	C551.246521,730.516785 549.567993,728.948242 548.351013,725.479492 
	C543.942200,712.914001 539.285950,700.434937 534.673767,687.941467 
	C533.883484,685.800720 533.514648,683.447266 531.427612,681.077942 
	C528.254517,689.829651 525.247192,698.189941 522.191223,706.532471 
	C519.671814,713.410278 516.980835,720.227783 514.599487,727.152405 
	C513.645508,729.926453 511.957458,730.647522 509.309937,730.466736 
	C506.687653,730.287720 503.994873,730.826904 502.758331,727.389160 
	C495.659424,707.653015 488.452606,687.955627 481.306793,668.236328 
	C481.151276,667.807190 481.287231,667.272461 481.287231,666.818970 
	C488.000214,664.356812 489.918182,665.197388 492.173615,671.440491 
	C496.923645,684.588867 501.665344,697.740479 506.491058,710.861145 
	C507.088013,712.484192 507.250671,714.427795 509.345978,715.869263 
	C513.207642,705.242126 516.996399,694.815552 520.921326,684.022583 
z"/>
<path fill="#000000" opacity="1.000000" stroke="none" 
	d="
M508.468872,343.156128 
	C514.879517,342.744202 520.346008,344.587463 525.709167,347.027954 
	C529.725037,348.855438 533.841614,350.461670 538.032166,352.216125 
	C528.996399,364.226624 511.880920,368.446594 499.400513,362.159668 
	C498.215088,361.562500 497.000061,360.722687 495.747131,360.618835 
	C492.271790,360.330841 491.000702,358.699371 491.835602,355.132019 
	C488.880920,363.495575 485.292664,371.447449 483.335815,381.045441 
	C488.899414,379.590485 494.252289,384.061127 498.647858,378.421570 
	C502.337585,379.519318 503.501160,382.277985 502.723877,385.682648 
	C502.002075,388.844147 499.780396,391.357330 496.308014,390.710205 
	C491.786774,389.867554 487.340363,390.541595 482.867188,390.396912 
	C475.080719,390.145050 471.632355,385.659088 473.966553,378.128845 
	C476.725220,369.229126 479.630676,360.359192 482.915924,351.643494 
	C485.433563,344.964355 484.183807,337.750122 486.506561,331.089661 
	C487.158722,329.219635 487.019409,326.859009 489.708496,326.745514 
	C491.996094,326.648926 494.745056,324.958893 496.339752,328.192780 
	C497.424103,330.391693 499.061737,329.511932 500.609192,328.934357 
	C513.644531,324.069397 525.469910,328.180054 536.958740,334.033112 
	C539.720215,335.439941 541.973145,337.766907 542.407104,341.372803 
	C539.692017,342.744751 537.358398,341.265503 535.047119,340.827423 
	C526.888916,339.281189 518.885254,336.866852 510.445648,337.051544 
	C506.898071,337.129181 503.513702,337.705658 500.198914,338.942566 
	C494.606262,341.029480 493.752075,342.499725 494.540619,349.427979 
	C499.001038,347.104279 502.974213,343.890472 508.468872,343.156128 
M518.801025,351.403992 
	C516.500488,353.062164 517.179199,355.782166 515.840637,358.381256 
	C519.897583,357.821411 523.144043,357.247253 525.156616,353.915100 
	C523.379883,352.253723 521.466370,351.741150 518.801025,351.403992 
M502.859436,357.674530 
	C504.307892,355.973267 504.307892,355.973267 502.638245,352.137115 
	C500.901520,352.731232 499.402100,353.549225 498.981720,355.497040 
	C499.703644,356.965485 501.264008,356.798309 502.859436,357.674530 
z"/>
<path fill="#000000" opacity="1.000000" stroke="none" 
	d="
M553.809204,558.874268 
	C564.151306,539.354614 575.600647,521.010071 590.089844,504.722931 
	C603.414185,489.745239 619.104187,478.715363 639.558960,476.109009 
	C642.883667,475.685364 647.114380,474.061584 648.367981,479.677887 
	C649.160400,483.227722 647.656677,484.582703 644.422485,484.977295 
	C628.373413,486.935394 615.091919,494.548248 603.696838,505.570160 
	C590.785278,518.058899 580.844299,532.866943 571.680420,548.206177 
	C562.869080,562.955261 555.236816,578.316406 548.186218,593.973938 
	C545.190796,600.625854 542.372681,601.673584 534.681213,598.625916 
	C540.281433,585.124817 546.697266,572.041626 553.809204,558.874268 
z"/>
<path fill="#000000" opacity="1.000000" stroke="none" 
	d="
M652.820312,711.523132 
	C645.124695,727.476318 631.320435,734.305176 613.949646,731.022766 
	C599.816345,728.352051 588.901367,716.018677 588.263733,699.989197 
	C587.508789,681.013123 599.386597,666.641907 618.382263,664.826538 
	C637.975403,662.954163 654.250610,676.604553 655.287476,695.023132 
	C655.599121,700.559509 655.212952,705.996460 652.820312,711.523132 
M604.794495,715.702637 
	C617.892639,726.739441 634.038391,724.600281 642.422668,710.717041 
	C648.008728,701.467102 646.497803,688.350464 638.961670,680.672729 
	C631.388367,672.957092 619.050232,671.402405 609.598572,676.953186 
	C596.400330,684.704285 594.106079,704.276184 604.794495,715.702637 
z"/>
<path fill="#000000" opacity="1.000000" stroke="none" 
	d="
M732.638550,703.728638 
	C728.724976,703.493530 725.486389,706.715271 725.313599,710.956482 
	C725.130737,715.444336 725.176453,719.946472 725.275391,724.439087 
	C725.352966,727.961975 725.017395,730.524719 720.311523,730.498840 
	C715.799194,730.473938 715.671814,727.986389 715.678223,724.704224 
	C715.729675,698.233582 715.741882,671.762695 715.707336,645.291992 
	C715.703186,642.139099 715.971863,639.773376 720.125183,639.760986 
	C724.099365,639.749146 725.305664,641.410156 725.272949,645.184753 
	C725.148804,659.501160 725.238770,673.819336 725.248230,688.136902 
	C725.249390,689.924316 725.248352,691.711731 725.248352,693.921021 
	C728.326965,693.295898 729.753296,691.405518 731.314026,689.812073 
	C737.717590,683.274780 744.364380,676.941589 750.340332,670.030579 
	C754.825378,664.843689 759.917847,665.279541 765.586365,666.249512 
	C765.781433,668.788818 763.926025,669.702026 762.726318,670.922852 
	C755.958679,677.809631 749.320251,684.845642 742.211975,691.366516 
	C738.532410,694.742126 738.994324,696.953857 742.128235,700.223816 
	C750.303894,708.754395 758.221497,717.532654 766.210205,726.241333 
	C767.071167,727.179932 768.345764,727.915222 768.297607,729.466431 
	C760.775635,732.092224 757.513672,731.273193 752.620728,725.802734 
	C746.073792,718.483093 739.446106,711.235657 732.638550,703.728638 
z"/>
<path fill="#000000" opacity="1.000000" stroke="none" 
	d="
M576.025146,272.235291 
	C556.382019,270.226959 537.200867,268.222900 518.016296,266.252686 
	C515.805664,266.025635 513.746155,265.545898 512.127319,263.908783 
	C510.192291,261.951965 509.727753,260.016083 512.052856,257.947693 
	C519.297546,251.502579 526.860718,246.388428 537.442871,247.668503 
	C552.129089,249.445023 567.007690,249.871918 581.585388,252.228668 
	C593.230713,254.111359 599.570618,263.138000 604.778992,274.309784 
	C594.626770,274.837067 585.607117,272.493317 576.025146,272.235291 
z"/>
<path fill="#000000" opacity="1.000000" stroke="none" 
	d="
M500.732971,442.974915 
	C498.563263,434.295868 501.054871,426.582977 504.249359,419.285431 
	C506.133484,414.981384 511.337738,416.229309 515.019714,414.847076 
	C516.633667,417.976044 515.351624,420.311920 514.539734,422.562866 
	C511.454773,431.115295 510.865753,439.585571 513.617310,448.451813 
	C515.667175,455.057068 514.225952,461.718811 511.194489,467.841492 
	C507.936188,474.422394 507.336517,481.123993 508.915527,488.226349 
	C509.983978,493.032379 509.428314,497.823059 507.771637,502.476837 
	C505.194550,509.715942 504.457855,517.035767 506.762482,524.515747 
	C507.149811,525.772766 507.272095,527.132202 507.367493,528.455139 
	C508.102478,538.648376 505.711487,541.204346 495.086853,541.636108 
	C493.934509,540.424622 494.645721,539.107178 494.999420,537.892822 
	C496.244781,533.617004 496.364655,529.218384 495.192200,525.049927 
	C492.828461,516.646057 493.598999,508.591095 496.765381,500.628784 
	C498.415649,496.479004 498.889618,492.286743 497.503174,487.973083 
	C495.293182,481.097229 496.181244,474.419800 499.243286,468.076324 
	C503.139771,460.004089 503.900299,451.854858 500.732971,442.974915 
z"/>
<path fill="#000000" opacity="1.000000" stroke="none" 
	d="
M801.536621,673.393005 
	C798.085999,673.110352 795.127563,673.408386 792.325684,674.672607 
	C789.393677,675.995605 787.493103,678.078064 787.171936,681.452271 
	C786.829285,685.051941 788.369263,687.547241 791.396301,689.271057 
	C795.049072,691.351379 799.120605,692.331665 803.051636,693.682739 
	C806.980103,695.032959 811.065735,695.944763 814.756775,697.958374 
	C820.907532,701.313477 823.993896,706.513062 823.731201,713.472961 
	C823.458984,720.683472 820.352478,726.206299 813.524597,729.329590 
	C802.080078,734.564636 786.235168,731.996948 777.569946,723.537231 
	C775.227356,721.250183 774.028076,719.311462 777.024231,716.535583 
	C779.491394,714.249756 781.299744,713.449402 783.991943,716.394653 
	C789.844666,722.797302 797.526367,723.898010 805.601318,722.531494 
	C809.977905,721.790894 813.304077,719.285828 813.824097,714.386169 
	C814.322754,709.688599 811.795471,706.772705 807.730713,705.151550 
	C804.027222,703.674561 800.182922,702.550232 796.399536,701.273804 
	C794.034912,700.476013 791.617920,699.807861 789.311401,698.868103 
	C780.831970,695.413391 776.549744,689.547546 776.890137,682.039001 
	C777.250671,674.086121 782.458679,667.726990 791.240662,665.545105 
	C801.254883,663.057251 810.699890,664.297913 819.034851,671.094788 
	C822.157898,673.641602 821.157410,675.575684 819.144531,678.151001 
	C817.105652,680.759521 815.466370,681.014893 813.101929,678.649170 
	C810.053223,675.598755 806.075928,674.301147 801.536621,673.393005 
z"/>
<path fill="#000000" opacity="1.000000" stroke="none" 
	d="
M486.414734,516.720337 
	C487.828491,524.455505 490.477783,531.648499 488.267303,539.276611 
	C487.263702,542.739990 480.893066,544.947998 478.104279,542.701660 
	C477.174042,541.952332 477.140137,540.989502 477.444946,539.996338 
	C479.385376,533.674133 478.331848,527.464050 476.684723,521.308594 
	C474.960510,514.865173 476.325867,508.760864 478.514130,502.742737 
	C480.310455,497.802643 481.242340,492.931000 479.709290,487.639679 
	C477.582611,480.299530 478.620575,473.119476 481.942871,466.268127 
	C485.214966,459.520172 485.582306,452.685944 483.578491,445.399536 
	C481.044189,436.184357 482.623901,427.169678 486.847351,418.721710 
	C489.477112,413.461456 493.019287,417.963837 496.104645,417.979980 
	C497.122803,420.631073 495.574249,422.492920 494.915344,424.449799 
	C492.514771,431.579254 491.674561,438.690704 494.261536,445.960236 
	C496.805389,453.108582 496.133362,460.122925 492.733490,466.776398 
	C489.231628,473.629517 488.194611,480.665588 490.336212,488.056824 
	C491.801086,493.112640 490.977020,497.897736 489.325806,502.721222 
	C487.820160,507.119537 486.246094,511.531372 486.414734,516.720337 
z"/>
<path fill="#000000" opacity="1.000000" stroke="none" 
	d="
M450.609680,675.027832 
	C450.829712,663.642578 448.909119,664.918518 460.937286,664.513550 
	C465.550232,664.358154 467.049988,665.965393 467.005402,670.500732 
	C466.830414,688.294739 466.814148,706.093018 467.019165,723.886475 
	C467.074829,728.719666 465.783447,730.681885 460.558624,730.515991 
	C450.195404,730.186951 450.380249,730.471924 450.521240,719.918579 
	C450.718933,705.122131 450.593414,690.321350 450.609680,675.027832 
z"/>
<path fill="#000000" opacity="1.000000" stroke="none" 
	d="
M683.213013,671.024414 
	C687.849060,666.449341 693.202881,664.693359 699.295288,664.575134 
	C702.782837,664.507507 703.485046,666.339966 703.421326,669.273315 
	C703.364014,671.907471 703.514038,674.472961 699.701660,674.236084 
	C685.400085,673.347351 679.282288,685.808899 679.298035,696.192322 
	C679.312439,705.682922 679.229431,715.173828 679.279541,724.664124 
	C679.296875,727.953613 679.112000,730.481812 674.623108,730.472412 
	C670.309143,730.463440 669.744385,728.219055 669.754761,724.791382 
	C669.808594,706.975769 669.814819,689.159729 669.740540,671.344299 
	C669.726379,667.948120 670.092896,665.607483 674.478455,665.606323 
	C678.772339,665.605164 679.555542,667.757935 679.280823,671.251221 
	C679.229919,671.898987 679.378235,672.562439 679.439697,673.278564 
	C681.480835,673.965698 681.839844,671.935242 683.213013,671.024414 
z"/>
<path fill="#000000" opacity="1.000000" stroke="none" 
	d="
M574.398560,230.711975 
	C575.854248,235.299698 577.219849,239.500534 578.861816,244.551407 
	C565.063538,243.924667 552.301697,242.436646 538.385986,240.818695 
	C543.292114,233.416336 544.731262,225.246307 550.060242,219.272141 
	C556.469971,212.086349 568.710510,214.696075 572.226135,223.661896 
	C573.073486,225.822876 573.622375,228.100876 574.398560,230.711975 
z"/>
<path fill="#000000" opacity="1.000000" stroke="none" 
	d="
M452.116547,653.025391 
	C449.416199,650.602661 448.498474,647.896667 448.676086,644.699341 
	C449.010498,638.678650 453.879120,634.304382 459.623169,634.955933 
	C465.441956,635.615967 469.363373,640.778748 468.521332,646.670898 
	C467.693390,652.464539 462.281189,656.311340 456.495667,655.061707 
	C455.076050,654.755005 453.776917,653.890564 452.116547,653.025391 
z"/>
<path fill="#000000" opacity="1.000000" stroke="none" 
	d="
M487.287231,410.692627 
	C487.098755,407.167938 488.425049,404.093750 486.946533,400.790222 
	C486.177856,399.072784 487.618988,397.372528 489.718384,396.790192 
	C495.958893,395.059326 510.481354,401.632599 512.934143,407.358765 
	C513.244873,408.084229 513.340454,408.901855 513.788635,410.680481 
	C505.811371,408.219269 499.071899,411.339050 492.100311,412.990540 
	C490.150421,413.452423 488.472260,412.958954 487.287231,410.692627 
z"/>
<path fill="#000000" opacity="1.000000" stroke="none" 
	d="
M572.186646,366.569885 
	C571.871582,364.963898 571.461426,363.711731 571.084290,362.449738 
	C570.319763,359.891266 570.714172,357.637421 573.513367,356.802765 
	C576.299133,355.972076 577.908020,357.754456 578.822388,360.140961 
	C581.029053,365.900574 577.965820,371.406952 571.379333,373.533905 
	C568.649170,371.014313 571.497986,369.077118 572.186646,366.569885 
z"/>
</svg>